<svg width="79" height="116" viewBox="0 0 79 116" fill="none" xmlns="http://www.w3.org/2000/svg">
<circle cx="40" cy="59" r="30" fill="#D0D0EE"/>
<line x1="31.5102" y1="58.8995" x2="39.5102" y2="19.8995" stroke="black"/>
<line x1="39.4914" y1="19.9079" x2="45.4914" y2="51.9079" stroke="black"/>
<line x1="46.4903" y1="61.0981" x2="39.4903" y2="96.0981" stroke="black"/>
<line x1="39.5091" y1="96.095" x2="33.5091" y2="65.095" stroke="black"/>
<line x1="40.1018" y1="50.5105" x2="78.1214" y2="58.4142" stroke="black"/>
<line x1="78.1107" y1="58.3949" x2="46.0935" y2="64.4912" stroke="black"/>
<line x1="38.8975" y1="66.4894" x2="0.897453" y2="58.5264" stroke="black"/>
<line x1="0.90825" y1="58.5457" x2="32.9073" y2="52.5087" stroke="black"/>
<line x1="39.7992" y1="50.6671" x2="61.2233" y2="37.745" stroke="black" stroke-width="0.777575"/>
<line x1="61.2026" y1="37.7401" x2="51.3211" y2="52.2192" stroke="black" stroke-width="0.777575"/>
<line x1="39.2081" y1="66.3284" x2="18.2081" y2="79.6344" stroke="black" stroke-width="0.777575"/>
<line x1="18.2247" y1="79.6392" x2="28.682" y2="64.7763" stroke="black" stroke-width="0.777575"/>
<line x1="48.3321" y1="59.7979" x2="60.7226" y2="80.1606" stroke="black" stroke-width="0.777575"/>
<path d="M19 37.5L32.5 51.5H33L33.5 47.5L19 37.5Z" fill="black"/>
<path d="M60 39L47 51.5L51 53L60 39Z" fill="black"/>
<path d="M19 37.5L32.5 51.5H33L33.5 47.5L19 37.5Z" stroke="black" stroke-width="0.2"/>
<path d="M60 39L47 51.5L51 53L60 39Z" stroke="black" stroke-width="0.2"/>
<path d="M19 79L33 65.5L28.5 64.5L19 79Z" fill="black" stroke="black" stroke-width="0.2"/>
<line x1="60.7325" y1="80.1436" x2="45.7865" y2="70.3249" stroke="black" stroke-width="0.777575"/>
<line x1="31.6689" y1="58.2038" x2="18.7462" y2="37.2038" stroke="black" stroke-width="0.777575"/>
<line x1="18.7386" y1="37.221" x2="34.2176" y2="47.6778" stroke="black" stroke-width="0.777575"/>
<path d="M19.5 78.5L60.5 38.5" stroke="black" stroke-width="0.2"/>
<path d="M59.5 79L39.5 59L19 37.5" stroke="black" stroke-width="0.2"/>
<path d="M39.5 95.5V59L46 65.5L39.5 95.5Z" stroke="black" stroke-width="0.2"/>
<path d="M39.5 59V95.5L33 65.5L39.5 59L2.5 58.5L33 52L39.5 59V20L46.5 52L39.5 59L77 58.5L46 65.5L39.5 59Z" fill="black"/>
<path d="M39.5 59V95.5L33 65.5L39.5 59ZM39.5 59L33 52L2.5 58.5L39.5 59ZM39.5 59L46 65.5L77 58.5L39.5 59ZM39.5 59V20L46.5 52L39.5 59Z" stroke="black" stroke-width="0.2"/>
<path d="M60 80L45 70.5L46 65.5L60 79.5V80Z" fill="black" stroke="black" stroke-width="0.2"/>
<path d="M37.251 6.67C37.251 6.29667 37.2043 6.01667 37.111 5.83C37.027 5.634 36.929 5.50333 36.817 5.438C36.705 5.37267 36.649 5.34933 36.649 5.368H38.875C38.875 5.34933 38.819 5.37267 38.707 5.438C38.595 5.50333 38.4923 5.634 38.399 5.83C38.3057 6.01667 38.259 6.29667 38.259 6.67V14.44H40.555C40.975 14.44 41.3343 14.356 41.633 14.188C41.941 14.0107 42.1603 13.7867 42.291 13.516L42.039 15H36.649C36.649 15.028 36.705 15.0093 36.817 14.944C36.929 14.8693 37.027 14.7293 37.111 14.524C37.2043 14.3093 37.251 14.0013 37.251 13.6V6.67Z" fill="black"/>
<path d="M42.9753 109.146C42.6206 109.435 42.1586 109.678 41.5893 109.874C41.02 110.07 40.446 110.168 39.8673 110.168C38.9993 110.168 38.192 109.967 37.4453 109.566C36.6986 109.165 36.0966 108.586 35.6393 107.83C35.1913 107.074 34.9673 106.187 34.9673 105.17C34.9673 104.218 35.1726 103.364 35.5833 102.608C36.0033 101.852 36.596 101.264 37.3613 100.844C38.136 100.415 39.0366 100.2 40.0633 100.2C41.1553 100.2 42.126 100.438 42.9753 100.914V102.468C42.686 101.955 42.266 101.549 41.7153 101.25C41.1646 100.942 40.5766 100.788 39.9513 100.788C39.158 100.788 38.4673 100.975 37.8793 101.348C37.3006 101.721 36.8573 102.235 36.5493 102.888C36.2413 103.532 36.0873 104.255 36.0873 105.058C36.0873 105.963 36.26 106.752 36.6053 107.424C36.96 108.096 37.436 108.614 38.0333 108.978C38.6306 109.333 39.298 109.51 40.0353 109.51C41.2206 109.51 42.2006 109.165 42.9753 108.474V109.146Z" fill="black"/>
</svg>
